<?xml version="1.0" ?><svg id="Layer_1" style="enable-background:new 0 0 512 512;" version="1.1" viewBox="0 0 512 512" xml:space="preserve" xmlns="http://www.w3.org/2000/svg" xmlns:xlink="http://www.w3.org/1999/xlink"><style type="text/css">
	.st0{fill:#2E2E2E;}
	.st1{fill:#5EA4D3;}
</style><g><g id="XMLID_353_"><polygon class="st0" id="XMLID_356_" points="340.1,6 340.1,112.8 448.6,112.8   "/><path class="st1" d="M448.4,124.8H328.3c-0.1,0-0.2-0.1-0.2-0.2V6.5c0-0.1-0.1-0.2-0.2-0.2H81.6    c-0.1,0-0.2,0.1-0.2,0.2v270.2h229.8l58.9,159H81.4v70c0,0.1,0.1,0.2,0.2,0.2h366.2c0.1,0,0.2-0.1,0.2-0.2l0.6-380.7    C448.6,124.9,448.5,124.8,448.4,124.8z" id="XMLID_355_"/></g><path class="st0" d="M302.9,288.8H63.4v135h289.5L302.9,288.8z M167,377.4c0,8.4-2.6,15.1-7.7,20.1c-5.1,5-11.7,7.4-19.9,7.4   c-8.6,0-15.4-2.2-20.5-6.6c-5-4.4-7.5-10.8-7.3-19.3l0.1-0.4h14.1c0,5,1.2,8.6,3.6,11c2.4,2.4,5.7,3.6,9.9,3.6   c3.8,0,6.9-1.4,9.3-4.3c2.4-2.9,3.6-6.7,3.6-11.5v-61.2H167V377.4z M241.1,398.4c-5.7,4.3-13.2,6.5-22.4,6.5   c-8.9,0-16.6-2.4-23.3-7.1c-6.6-4.7-9.8-11.4-9.6-20l0.1-0.4H200c0,5.2,1.8,9.2,5.4,11.9c3.6,2.7,8,4,13.2,4c5.2,0,9.2-1.1,12-3.3   c2.9-2.2,4.3-5.1,4.3-8.9c0-3.6-1.3-6.6-3.9-9c-2.6-2.3-7.2-4.4-13.7-6.2c-9.4-2.6-16.7-6-21.8-10.2c-5.1-4.2-7.7-9.7-7.7-16.6   c0-7,2.8-12.9,8.4-17.4c5.6-4.6,12.8-6.8,21.6-6.8c9.5,0,17,2.5,22.7,7.6c5.7,5.1,8.4,11.3,8.2,18.8l-0.1,0.4h-14.1   c0-4.6-1.5-8.3-4.6-11c-3.1-2.7-7.1-4.1-12.2-4.1c-4.9,0-8.7,1.2-11.4,3.5c-2.7,2.3-4,5.3-4,9c0,3.4,1.5,6.1,4.4,8.3   c2.9,2.2,7.8,4.3,14.5,6.2c9.2,2.6,16.2,6.1,21,10.5c4.8,4.4,7.2,10.1,7.2,17C249.6,388.3,246.8,394.1,241.1,398.4z"/></g></svg>