<?xml version="1.0" encoding="utf-8"?>
<!-- Generator: Adobe Illustrator 20.0.0, SVG Export Plug-In . SVG Version: 6.00 Build 0)  -->
<svg version="1.1" id="cloud-vis-1" xmlns="http://www.w3.org/2000/svg" xmlns:xlink="http://www.w3.org/1999/xlink" x="0px"
	 y="0px" viewBox="0 0 500 500" style="enable-background:new 0 0 500 500;" xml:space="preserve">
<style type="text/css">
	.st0{fill:#005290;}
	.st1{fill:#0077BB;}
	.st2{fill:#B7C9D3;}
	.st3{display:none;fill:#0077BB;}
	.st4{opacity:0.3;fill:#B7C9D3;enable-background:new    ;}
</style>
<g>
	<g>
		<path class="st0" d="M227.1,453.9L227.1,453.9c-1.5,0-2.7-0.1-4.1-0.2c-2.2-0.1-3.9-1.9-3.8-4.2c0.1-2.2,1.9-3.9,4.2-3.8
			c1.3,0.1,2.6,0.1,3.9,0.2c2.2,0.1,3.9,1.9,3.9,4.1C230.9,452.3,229.1,453.9,227.1,453.9z M240.9,453.9c-2.1,0-3.9-1.7-4-3.9
			c-0.1-2.2,1.7-4,3.8-4.1c1.3,0,2.6-0.1,3.9-0.2c2.2-0.1,4.1,1.6,4.2,3.8s-1.6,4.1-3.8,4.2C243.6,453.9,242.3,453.9,240.9,453.9
			C240.9,453.9,240.9,453.9,240.9,453.9z M209.4,452.7c-0.1,0-0.3,0-0.4,0c-1.3-0.2-2.7-0.3-4-0.5c-2.2-0.3-3.6-2.3-3.4-4.4
			c0.3-2.2,2.3-3.6,4.4-3.4c1.3,0.2,2.6,0.3,3.9,0.5c2.2,0.2,3.8,2.2,3.5,4.3C213.1,451.2,211.3,452.7,209.4,452.7z M258.5,452.7
			c-1.9,0-3.6-1.5-3.9-3.5c-0.3-2.2,1.3-4.2,3.5-4.3c1.3-0.1,2.6-0.3,3.9-0.5c2.2-0.3,4.2,1.2,4.4,3.4c0.2,2.2-1.2,4.2-3.4,4.4
			c-1.3,0.2-2.7,0.3-4,0.5C258.8,452.7,258.8,452.7,258.5,452.7z M191.9,450c-0.3,0-0.5,0-0.8-0.1c-1.3-0.3-2.7-0.5-4-0.8
			c-2.1-0.5-3.5-2.6-3.1-4.7c0.5-2.1,2.6-3.5,4.7-3.1c1.3,0.3,2.5,0.5,3.8,0.8c2.2,0.4,3.5,2.5,3.1,4.7
			C195.4,448.7,193.6,450,191.9,450z M276,449.9c-1.9,0-3.5-1.3-3.9-3.2c-0.4-2.2,1-4.2,3.1-4.7c1.3-0.3,2.6-0.5,3.8-0.8
			c2.2-0.5,4.2,0.9,4.7,3s-0.9,4.2-3,4.7c-1.3,0.3-2.6,0.6-4,0.8C276.5,449.9,276.4,449.9,276,449.9z M174.6,445.9
			c-0.4,0-0.7,0-1.1-0.2c-1.3-0.4-2.6-0.7-3.9-1.1c-2.1-0.6-3.3-2.8-2.7-5c0.6-2.1,2.8-3.3,5-2.7c1.2,0.4,2.5,0.7,3.6,1.1
			c2.1,0.6,3.3,2.7,2.7,4.9C177.9,444.7,176.4,445.9,174.6,445.9z M293.3,445.7c-1.7,0-3.3-1.1-3.8-2.8c-0.6-2.1,0.6-4.2,2.7-4.9
			c1.3-0.4,2.5-0.7,3.8-1.1c2.1-0.6,4.2,0.5,5,2.6c0.6,2.1-0.5,4.2-2.6,5c-1.3,0.4-2.6,0.8-3.9,1.1
			C294,445.7,293.6,445.7,293.3,445.7z M157.8,440.4c-0.5,0-0.9-0.1-1.4-0.3c-1.3-0.5-2.5-1-3.8-1.5c-1.9-0.8-3-3.1-2.2-5.1
			c0.8-1.9,3.1-3,5.1-2.2c1.2,0.5,2.4,0.9,3.6,1.4c2.1,0.8,3.1,3.1,2.3,5C160.8,439.4,159.3,440.4,157.8,440.4z M310,440.1
			c-1.6,0-3.1-1-3.6-2.6c-0.8-2.1,0.3-4.3,2.3-5c1.2-0.5,2.4-0.9,3.5-1.4c1.9-0.8,4.3,0.2,5.1,2.2c0.8,1.9-0.2,4.3-2.2,5.1
			c-1.3,0.5-2.5,1-3.8,1.5C311,440.1,310.6,440.1,310,440.1z M141.4,433.4c-0.6,0-1.1-0.1-1.7-0.4c-1.2-0.6-2.4-1.2-3.6-1.8
			c-1.9-1-2.7-3.4-1.8-5.2c1-1.9,3.4-2.7,5.2-1.8c1.2,0.6,2.3,1.1,3.5,1.7c1.9,0.9,2.7,3.3,1.9,5.2
			C144.3,432.6,142.9,433.4,141.4,433.4z M326.5,433.2c-1.5,0-2.8-0.8-3.5-2.3c-0.9-1.9-0.1-4.3,1.9-5.2c1.2-0.6,2.3-1.1,3.5-1.7
			c1.9-1,4.3-0.2,5.2,1.8c1,1.9,0.2,4.3-1.8,5.2c-1.2,0.6-2.4,1.2-3.5,1.8C327.5,433.2,327,433.2,326.5,433.2z M125.7,425.2
			c-0.7,0-1.4-0.2-1.9-0.5c-1.2-0.7-2.3-1.4-3.5-2.1c-1.9-1.1-2.5-3.5-1.4-5.5s3.5-2.5,5.5-1.4c1.1,0.7,2.2,1.3,3.4,1.9
			c1.9,1.1,2.6,3.5,1.5,5.3C128.4,424.6,126.9,425.2,125.7,425.2z M342.1,425c-1.4,0-2.7-0.7-3.4-1.9c-1.1-1.9-0.5-4.2,1.5-5.3
			c1.1-0.7,2.2-1.3,3.4-1.9c1.9-1.1,4.2-0.5,5.5,1.4c1.1,1.9,0.5,4.2-1.4,5.5c-1.2,0.7-2.3,1.4-3.5,2.1
			C343.5,424.8,342.9,425,342.1,425z M110.6,415.8c-0.8,0-1.6-0.2-2.3-0.7c-1.1-0.8-2.2-1.5-3.3-2.3c-1.8-1.3-2.2-3.8-0.9-5.6
			s3.8-2.2,5.6-0.9c1.1,0.8,2.1,1.5,3.2,2.2c1.8,1.2,2.3,3.6,1,5.5C113.1,415.2,111.9,415.8,110.6,415.8z M357,415.6
			c-1.3,0-2.5-0.6-3.3-1.7c-1.3-1.8-0.8-4.2,1-5.5c1.1-0.7,2.1-1.5,3.2-2.3c1.8-1.3,4.2-0.9,5.6,0.9c1.3,1.8,0.9,4.2-0.9,5.6
			c-1.1,0.8-2.2,1.6-3.3,2.3C358.6,415.3,357.9,415.6,357,415.6z M96.4,405.1c-0.9,0-1.8-0.3-2.5-0.9c-1-0.9-2.1-1.7-3.1-2.6
			c-1.7-1.4-1.9-3.9-0.5-5.6c1.4-1.7,3.9-1.9,5.6-0.5c1,0.8,1.9,1.7,3,2.5c1.7,1.4,1.9,3.9,0.6,5.6
			C98.6,404.6,97.6,405.1,96.4,405.1z M371.3,404.9c-1.1,0-2.3-0.5-3.1-1.5c-1.4-1.7-1.1-4.2,0.5-5.6c1-0.8,1.9-1.7,3-2.5
			c1.7-1.4,4.2-1.2,5.6,0.4c1.4,1.7,1.2,4.2-0.4,5.6c-1,0.9-2.1,1.7-3.1,2.6C373,404.5,372.1,404.9,371.3,404.9z M83.1,393.4
			c-1,0-1.9-0.4-2.7-1.1c-1-0.9-1.9-1.9-2.8-2.7c-1.6-1.6-1.6-4.1,0-5.6c1.6-1.6,4.1-1.6,5.6,0c0.9,0.9,1.9,1.8,2.7,2.7
			c1.6,1.5,1.6,4,0.1,5.6C85.3,392.9,84.3,393.4,83.1,393.4z M384.5,393c-1,0-2.1-0.4-2.8-1.2c-1.5-1.6-1.5-4.1,0.1-5.6
			c0.9-0.9,1.9-1.8,2.7-2.7c1.6-1.6,4.1-1.6,5.6,0c1.6,1.6,1.6,4.1,0,5.6c-1,1-1.9,1.9-2.8,2.7C386.5,392.7,385.4,393,384.5,393z
			 M70.9,380.5c-1.1,0-2.2-0.5-3-1.3c-0.9-1-1.8-1.9-2.6-3.1c-1.4-1.7-1.2-4.2,0.5-5.6s4.2-1.2,5.6,0.5c0.8,1,1.7,1.9,2.6,3
			c1.5,1.6,1.3,4.2-0.4,5.6C72.8,380.3,71.9,380.5,70.9,380.5z M396.8,380.3c-0.9,0-1.9-0.3-2.6-1c-1.7-1.5-1.8-4-0.4-5.6
			c0.9-1,1.7-1.9,2.6-3c1.4-1.7,3.9-1.9,5.6-0.5s1.9,3.9,0.5,5.6c-0.9,1-1.8,2.1-2.6,3.1C399,379.7,397.8,380.3,396.8,380.3z
			 M59.8,366.8c-1.2,0-2.4-0.6-3.2-1.6c-0.8-1.1-1.6-2.2-2.4-3.3c-1.3-1.8-0.9-4.2,0.9-5.6c1.8-1.3,4.2-0.9,5.6,0.9
			c0.8,1.1,1.5,2.1,2.3,3.1c1.3,1.8,1,4.2-0.8,5.6C61.4,366.5,60.6,366.8,59.8,366.8z M407.8,366.4c-0.8,0-1.7-0.3-2.4-0.8
			c-1.8-1.3-2.1-3.8-0.8-5.6c0.8-1,1.5-2.1,2.3-3.2c1.3-1.8,3.8-2.2,5.6-0.9s2.2,3.8,0.9,5.6c-0.8,1.1-1.6,2.2-2.4,3.3
			C410.1,365.8,409,366.4,407.8,366.4z M49.8,352.2c-1.3,0-2.6-0.7-3.4-1.9c-0.7-1.1-1.4-2.3-2.1-3.4c-1.1-1.9-0.5-4.2,1.4-5.5
			c1.9-1.1,4.2-0.5,5.5,1.4c0.7,1.1,1.4,2.2,1.9,3.3c1.2,1.9,0.6,4.2-1.3,5.5C51.1,352,50.4,352.2,49.8,352.2z M417.9,351.7
			c-0.7,0-1.4-0.2-2.1-0.6c-1.9-1.2-2.4-3.5-1.3-5.5c0.7-1.1,1.4-2.2,1.9-3.3c1.1-1.9,3.5-2.5,5.5-1.4c1.9,1.1,2.5,3.5,1.4,5.5
			c-0.7,1.2-1.4,2.3-2.1,3.5C420.5,351.2,419,351.7,417.9,351.7z M40.9,336.7c-1.4,0-2.7-0.8-3.5-2.2c-0.6-1.2-1.2-2.4-1.8-3.5
			c-1-1.9-0.2-4.3,1.8-5.2c1.9-1,4.3-0.2,5.2,1.8c0.6,1.2,1.2,2.3,1.8,3.5c1,1.9,0.2,4.3-1.7,5.3C42.3,336.6,41.6,336.7,40.9,336.7z
			 M426.6,336.4c-0.6,0-1.2-0.1-1.8-0.4c-1.9-1-2.7-3.4-1.7-5.3c0.6-1.2,1.2-2.3,1.8-3.5c1-1.9,3.4-2.7,5.2-1.8
			c1.9,1,2.7,3.4,1.8,5.2c-0.6,1.2-1.2,2.4-1.8,3.5C429.5,335.6,428,336.4,426.6,336.4z M33.4,320.7c-1.6,0-3-0.9-3.6-2.4
			c-0.5-1.2-1-2.5-1.5-3.6c-0.8-1.9,0.2-4.3,2.2-5.1s4.3,0.2,5.1,2.2c0.5,1.2,1,2.4,1.5,3.5c0.8,1.9-0.1,4.3-2.1,5.1
			C34.4,320.6,34.1,320.7,33.4,320.7z M434,320.2c-0.5,0-1-0.1-1.5-0.3c-1.9-0.8-3-3.2-2.1-5.1c0.5-1.2,1-2.4,1.5-3.5
			c0.8-1.9,3.1-3.1,5.1-2.2c1.9,0.8,3.1,3.1,2.2,5.1c-0.5,1.3-1,2.5-1.5,3.8C437,319.3,435.6,320.2,434,320.2z M27.3,304.2
			c-1.7,0-3.2-1.1-3.8-2.7c-0.4-1.3-0.8-2.6-1.2-3.9c-0.6-2.1,0.5-4.2,2.6-5c2.1-0.6,4.2,0.5,5,2.6c0.4,1.2,0.8,2.5,1.2,3.6
			c0.7,2.1-0.5,4.2-2.6,5C28.1,304.1,27.6,304.2,27.3,304.2z M440.3,303.6c-0.4,0-0.8-0.1-1.2-0.2c-2.1-0.7-3.2-2.8-2.6-5
			c0.4-1.2,0.8-2.5,1.2-3.6c0.6-2.1,2.8-3.3,5-2.7s3.3,2.8,2.7,5c-0.4,1.3-0.8,2.6-1.2,3.9C443.5,302.5,442,303.6,440.3,303.6z
			 M22.6,287c-1.8,0-3.4-1.2-3.9-3.1c-0.3-1.3-0.6-2.6-0.9-4c-0.5-2.1,0.9-4.2,3-4.7s4.2,0.9,4.7,3c0.3,1.3,0.6,2.5,0.9,3.8
			c0.5,2.1-0.8,4.2-3,4.8C23.1,287,22.8,287,22.6,287z M445,286.4c-0.3,0-0.6,0-0.9-0.1c-2.1-0.5-3.5-2.6-3-4.8
			c0.3-1.3,0.6-2.5,0.8-3.8c0.5-2.1,2.6-3.5,4.7-3.1c2.1,0.5,3.5,2.6,3.1,4.7c-0.3,1.3-0.6,2.6-0.9,4
			C448.4,285.2,446.8,286.4,445,286.4z M19.1,269.7c-1.9,0-3.5-1.4-3.9-3.4c-0.2-1.3-0.4-2.7-0.6-4c-0.3-2.2,1.2-4.2,3.4-4.4
			c2.2-0.3,4.2,1.2,4.4,3.4c0.2,1.3,0.4,2.6,0.5,3.9c0.3,2.2-1.2,4.2-3.3,4.4C19.4,269.6,19.4,269.7,19.1,269.7z M448.1,269
			c-0.2,0-0.4,0-0.6,0c-2.2-0.3-3.6-2.3-3.4-4.4c0.2-1.3,0.4-2.6,0.5-3.9c0.3-2.2,2.3-3.6,4.4-3.4s3.6,2.3,3.4,4.4
			c-0.2,1.3-0.4,2.7-0.6,4C451.9,267.6,450.1,269,448.1,269z M17.1,252.1c-2.1,0-3.8-1.6-4-3.6c-0.1-1.3-0.2-2.7-0.2-4
			c-0.1-2.2,1.6-4.1,3.8-4.2c2.2-0.1,4.1,1.6,4.2,3.8c0.1,1.3,0.1,2.6,0.2,3.9c0.1,2.2-1.5,4.1-3.6,4.2
			C17.4,252.1,17.4,252.1,17.1,252.1z M450.1,251.4c-0.1,0-0.2,0-0.3,0c-2.2-0.1-3.9-1.9-3.6-4.2c0.1-1.3,0.2-2.6,0.2-3.9
			c0.1-2.2,1.9-3.9,4.2-3.8c2.2,0.1,3.9,1.9,3.8,4.2c-0.1,1.4-0.1,2.7-0.2,4C453.9,249.8,452,251.4,450.1,251.4z M16.8,237.2
			c-2.2,0-4-1.8-4-4c0-1.4,0-2.7,0-4.1c0-2.2,1.9-4,4.1-3.9c2.2,0,3.9,1.9,3.9,4.1c0,1.3,0,2.6,0,3.9
			C20.8,235.4,18.9,237.2,16.8,237.2z M450.5,233.6c-2.2,0-3.9-1.7-4-3.9c0-1.3-0.1-2.6-0.1-3.9c-0.1-2.2,1.6-4,3.8-4.1
			s4,1.6,4.1,3.8c0,1.3,0.1,2.7,0.1,4C454.5,231.8,452.8,233.6,450.5,233.6L450.5,233.6z M17.4,219.4c-0.1,0-0.2,0-0.3,0
			c-2.2-0.2-3.8-2.1-3.5-4.2c0.1-1.3,0.2-2.7,0.4-4c0.2-2.2,2.2-3.8,4.3-3.5c2.2,0.2,3.8,2.2,3.5,4.3c-0.1,1.3-0.2,2.6-0.4,3.9
			C21.1,217.8,19.4,219.4,17.4,219.4z M449.5,216c-1.9,0-3.8-1.5-4-3.5c-0.1-1.3-0.3-2.6-0.4-3.9c-0.3-2.2,1.3-4.2,3.5-4.3
			c2.2-0.3,4.2,1.3,4.3,3.5c0.2,1.3,0.3,2.7,0.4,4c0.2,2.2-1.4,4.1-3.5,4.2C449.6,216,449.6,216,449.5,216z M19.6,201.8
			c-0.2,0-0.4,0-0.6-0.1c-2.2-0.4-3.5-2.4-3.3-4.6c0.2-1.3,0.4-2.7,0.7-4c0.4-2.2,2.5-3.5,4.6-3.2c2.2,0.4,3.5,2.5,3.2,4.6
			c-0.2,1.3-0.5,2.6-0.7,3.8C23.3,200.5,21.6,201.8,19.6,201.8z M447,198.4c-1.9,0-3.5-1.3-3.9-3.3c-0.2-1.3-0.5-2.6-0.7-3.8
			c-0.4-2.2,1-4.2,3.1-4.7s4.2,1,4.7,3.1c0.3,1.3,0.5,2.6,0.8,4c0.4,2.2-1,4.2-3.2,4.6C447.5,198.4,447.4,198.4,447,198.4z
			 M23.3,184.5c-0.3,0-0.6,0-1-0.1c-2.1-0.5-3.4-2.7-2.8-4.8c0.3-1.3,0.7-2.6,1-3.9c0.6-2.1,2.7-3.4,4.9-2.7s3.4,2.7,2.7,4.9
			c-0.3,1.3-0.7,2.5-1,3.8C26.6,183.2,24.9,184.5,23.3,184.5z M443.1,181.1c-1.8,0-3.4-1.2-3.8-3c-0.3-1.3-0.7-2.5-1-3.8
			c-0.6-2.1,0.6-4.2,2.7-4.9c2-0.6,4.2,0.6,4.9,2.7c0.4,1.3,0.7,2.6,1.1,3.9c0.6,2.1-0.7,4.2-2.7,4.9
			C443.9,181,443.5,181.1,443.1,181.1z M28.3,167.4c-0.4,0-0.9-0.1-1.3-0.2c-2.1-0.7-3.2-3-2.5-5c0.4-1.3,0.9-2.6,1.3-3.8
			c0.7-2.1,3-3.1,5-2.4c2.1,0.7,3.1,3,2.4,5c-0.4,1.1-0.9,2.5-1.3,3.6C31.4,166.4,29.9,167.4,28.3,167.4z M438,164.1
			c-1.6,0-3.2-1-3.6-2.6c-0.4-1.1-0.9-2.4-1.3-3.6c-0.8-2.1,0.3-4.3,2.3-5c2.1-0.8,4.3,0.3,5,2.3c0.5,1.3,0.9,2.5,1.4,3.8
			c0.7,2.1-0.3,4.2-2.4,5C438.9,164.1,438.5,164.1,438,164.1z M34.6,150.9c-0.5,0-1.1-0.1-1.6-0.3c-1.9-0.9-2.8-3.2-2.1-5.1
			c0.5-1.2,1.1-2.5,1.7-3.6c0.9-1.9,3.3-2.8,5.2-1.9s2.8,3.3,1.9,5.2c-0.5,1.2-1.1,2.4-1.6,3.5C37.6,150,36.1,150.9,34.6,150.9z
			 M431.3,147.7c-1.5,0-3-0.9-3.5-2.3c-0.5-1.2-1.1-2.4-1.6-3.5c-0.9-1.9-0.1-4.3,1.9-5.2s4.3-0.1,5.2,1.9c0.6,1.2,1.1,2.4,1.7,3.6
			c0.9,1.9,0,4.3-1.9,5.2C432.4,147.6,432,147.7,431.3,147.7z M42.4,134.9c-0.6,0-1.3-0.2-1.9-0.5c-1.9-1-2.7-3.4-1.6-5.3
			c0.6-1.2,1.3-2.4,1.9-3.5c1.1-1.9,3.5-2.6,5.3-1.5c1.9,1.1,2.6,3.5,1.5,5.3c-0.6,1.1-1.3,2.3-1.9,3.4
			C45.1,134.2,43.6,134.9,42.4,134.9z M423.4,131.9c-1.4,0-2.7-0.7-3.5-1.9c-0.6-1.1-1.3-2.3-1.9-3.4c-1.1-1.9-0.5-4.2,1.4-5.3
			c1.9-1.1,4.2-0.5,5.3,1.4c0.7,1.2,1.3,2.3,1.9,3.5c1.1,1.9,0.4,4.2-1.5,5.3C424.6,131.8,424,131.9,423.4,131.9z M51.4,119.6
			c-0.7,0-1.5-0.2-2.2-0.6c-1.8-1.2-2.4-3.6-1.2-5.5c0.7-1.1,1.5-2.3,2.2-3.4c1.2-1.8,3.6-2.3,5.5-1.1c1.8,1.2,2.3,3.6,1.1,5.5
			c-0.7,1.1-1.4,2.2-2.2,3.3C53.9,118.9,52.6,119.6,51.4,119.6z M414.1,116.8c-1.3,0-2.5-0.6-3.3-1.8c-0.7-1.1-1.5-2.2-2.2-3.2
			c-1.3-1.8-0.8-4.2,1-5.5s4.2-0.8,5.5,1c0.8,1.1,1.5,2.2,2.3,3.3c1.2,1.8,0.7,4.2-1.1,5.5C415.6,116.6,414.9,116.8,414.1,116.8z
			 M61.6,105.1c-0.8,0-1.7-0.3-2.4-0.8c-1.7-1.3-2.1-3.8-0.7-5.6c0.8-1.1,1.7-2.1,2.5-3.2c1.4-1.7,3.9-1.9,5.6-0.6
			c1.7,1.4,1.9,3.9,0.6,5.6c-0.8,1-1.6,1.9-2.4,3.1C63.9,104.6,62.6,105.1,61.6,105.1z M403.6,102.6c-1.2,0-2.3-0.5-3.1-1.5
			s-1.6-1.9-2.5-3c-1.4-1.7-1.2-4.2,0.5-5.6s4.2-1.2,5.6,0.5c0.9,1,1.7,2.1,2.5,3.1c1.4,1.7,1.1,4.2-0.6,5.6
			C405.5,102.2,404.5,102.6,403.6,102.6z M72.9,91.5c-1,0-1.9-0.3-2.7-1c-1.6-1.5-1.8-4-0.3-5.6c0.9-1,1.8-1.9,2.7-3
			c1.5-1.6,4-1.7,5.6-0.2s1.7,4,0.2,5.6c-0.9,0.9-1.8,1.9-2.7,2.8C75.1,91.1,73.9,91.5,72.9,91.5z M392,89c-1.1,0-2.1-0.4-2.8-1.3
			c-0.9-1-1.8-1.9-2.7-2.7c-1.5-1.6-1.5-4.1,0.1-5.6c1.6-1.5,4.1-1.5,5.6,0.1c0.9,1,1.9,1.9,2.7,2.8c1.5,1.6,1.4,4.1-0.2,5.6
			C394,88.7,393,89,392,89z M85.4,78.9c-1.1,0-2.1-0.4-2.8-1.3c-1.5-1.6-1.4-4.1,0.2-5.6c1-0.9,1.9-1.8,3-2.7
			c1.6-1.5,4.1-1.3,5.6,0.3c1.5,1.6,1.3,4.1-0.3,5.6c-1,0.9-1.9,1.8-2.8,2.6C87.3,78.4,86.4,78.9,85.4,78.9z M379.5,76.6
			c-1,0-1.9-0.3-2.7-1c-1-0.9-1.9-1.7-2.8-2.6c-1.7-1.4-1.8-4-0.4-5.6c1.4-1.6,4-1.8,5.6-0.4c1,0.9,1.9,1.8,3,2.7
			c1.6,1.5,1.7,4,0.3,5.6C381.6,76.2,380.5,76.6,379.5,76.6z M98.8,67.3c-1.2,0-2.3-0.5-3.1-1.5c-1.4-1.7-1.1-4.2,0.6-5.6
			c1.1-0.8,2.1-1.7,3.2-2.5c1.7-1.3,4.2-1,5.6,0.7c1.3,1.7,1,4.2-0.7,5.6c-1,0.8-2.1,1.6-3.1,2.4C100.6,66.9,99.6,67.3,98.8,67.3z
			 M366,65.1c-0.8,0-1.7-0.3-2.4-0.8c-1-0.8-2.1-1.6-3.1-2.4c-1.8-1.3-2.1-3.8-0.8-5.6c1.3-1.8,3.8-2.1,5.6-0.8
			c1.1,0.8,2.2,1.6,3.2,2.4c1.7,1.3,2.1,3.8,0.7,5.6C368.1,64.7,367,65.1,366,65.1z M113.1,56.8c-1.3,0-2.5-0.6-3.3-1.8
			c-1.2-1.8-0.7-4.2,1.1-5.5c1.1-0.7,2.2-1.5,3.4-2.2c1.8-1.1,4.2-0.7,5.5,1.2c1.2,1.8,0.7,4.2-1.2,5.5c-1.1,0.7-2.2,1.4-3.3,2.1
			C114.6,56.6,113.8,56.8,113.1,56.8z M351.4,55c-0.7,0-1.5-0.2-2.2-0.6c-1.1-0.7-2.2-1.4-3.3-2.1c-1.9-1.2-2.4-3.5-1.3-5.5
			c1.2-1.9,3.5-2.4,5.5-1.3c1.1,0.7,2.3,1.4,3.4,2.2c1.8,1.2,2.4,3.6,1.2,5.5C353.9,54.4,352.6,55,351.4,55z M128.3,47.5
			c-1.4,0-2.7-0.7-3.5-1.9c-1.1-1.9-0.4-4.2,1.5-5.3c1.2-0.7,2.4-1.3,3.5-1.9c1.9-1,4.2-0.3,5.3,1.6c1,1.9,0.3,4.2-1.6,5.3
			c-1.1,0.6-2.3,1.2-3.4,1.9C129.4,47.5,128.9,47.5,128.3,47.5z M336.1,46c-0.6,0-1.3-0.2-1.9-0.5c-1.1-0.6-2.3-1.2-3.5-1.8
			c-1.9-1-2.7-3.4-1.7-5.3s3.4-2.7,5.3-1.7c1.2,0.6,2.4,1.1,3.5,1.9c1.9,1,2.7,3.5,1.6,5.3C338.9,45.2,337.5,46,336.1,46z
			 M144.1,39.6c-1.5,0-3-0.9-3.5-2.3c-0.9-1.9,0-4.3,1.9-5.2c1.2-0.6,2.5-1.1,3.6-1.6c1.9-0.9,4.3,0.1,5.1,2.1
			c0.9,1.9-0.1,4.3-2.1,5.1c-1.2,0.5-2.4,1-3.5,1.6C145.1,39.5,144.6,39.6,144.1,39.6z M320,38.3c-0.5,0-1.1-0.1-1.6-0.3
			c-1.2-0.5-2.4-1-3.5-1.5c-1.9-0.8-3-3.2-2.2-5.1s3.2-3,5.1-2.2c1.3,0.5,2.5,1,3.6,1.6c1.9,0.9,2.8,3.2,2.1,5.1
			C323.1,37.4,321.5,38.3,320,38.3z M160.4,32.9c-1.6,0-3.2-1-3.6-2.6c-0.7-2.1,0.3-4.2,2.4-5c1.3-0.5,2.5-0.9,3.8-1.3
			c2.1-0.7,4.2,0.4,5,2.5c0.7,2.1-0.4,4.2-2.5,5c-1.2,0.4-2.5,0.8-3.6,1.3C161.4,32.9,160.9,32.9,160.4,32.9z M303.5,31.8
			c-0.4,0-0.9-0.1-1.3-0.2c-1.2-0.4-2.5-0.8-3.6-1.2c-2.1-0.7-3.2-2.8-2.6-5c0.7-2.1,2.8-3.2,5-2.6c1.3,0.4,2.6,0.8,3.9,1.3
			c2.1,0.7,3.2,3,2.5,5C306.8,30.7,305.1,31.8,303.5,31.8z M177.4,27.6c-1.8,0-3.4-1.2-3.8-3c-0.6-2.1,0.7-4.2,2.7-4.9
			c1.3-0.3,2.6-0.7,3.9-1c2.1-0.5,4.2,0.8,4.8,2.8c0.5,2.1-0.8,4.2-2.8,4.8c-1.3,0.3-2.5,0.6-3.8,1
			C178.1,27.6,177.6,27.6,177.4,27.6z M286.5,26.8c-0.3,0-0.6,0-1-0.1c-1.3-0.3-2.5-0.6-3.8-0.9c-2.1-0.5-3.5-2.6-3-4.8
			c0.5-2.1,2.6-3.5,4.8-3c1.3,0.3,2.6,0.6,3.9,0.9c2.1,0.5,3.4,2.7,2.8,4.8C290,25.5,288.4,26.8,286.5,26.8z M194.6,23.7
			c-1.9,0-3.5-1.3-3.9-3.3c-0.4-2.2,1-4.2,3.2-4.6c1.3-0.2,2.7-0.5,4-0.7c2.2-0.4,4.2,1.1,4.6,3.3c0.4,2.2-1.1,4.2-3.3,4.6
			c-1.3,0.2-2.6,0.4-3.9,0.7C195.1,23.7,194.9,23.7,194.6,23.7z M269.3,23.1c-0.2,0-0.4,0-0.7-0.1c-1.3-0.2-2.6-0.4-3.9-0.6
			c-2.2-0.3-3.6-2.3-3.4-4.4c0.3-2.2,2.3-3.6,4.4-3.4c1.3,0.2,2.7,0.4,4,0.6c2.2,0.4,3.5,2.4,3.3,4.6
			C272.8,21.8,271,23.1,269.3,23.1z M212.3,21.3c-1.9,0-3.8-1.5-4-3.5c-0.2-2.2,1.4-4.1,3.5-4.2c1.3-0.1,2.7-0.3,4-0.4
			c2.2-0.2,4.1,1.5,4.2,3.6c0.2,2.2-1.5,4.1-3.6,4.2c-1.3,0.1-2.6,0.2-3.9,0.3C212.4,21.3,212.4,21.3,212.3,21.3z M251.6,21
			c-0.1,0-0.2,0-0.3,0c-1.3-0.1-2.6-0.2-3.9-0.3c-2.2-0.1-3.9-1.9-3.6-4.2c0.1-2.2,1.9-3.8,4.2-3.6c1.4,0.1,2.7,0.2,4,0.3
			c2.2,0.2,3.8,2.1,3.5,4.2C255.4,19.4,253.6,21,251.6,21z M229.9,20.3c-2.2,0-3.9-1.7-4-3.9c0-2.2,1.7-4,3.9-4c1.3,0,2.5,0,3.8,0
			h0.2c2.2,0,4,1.8,4,4s-1.8,4-4,4h-0.2C232.4,20.3,231.1,20.3,229.9,20.3C229.9,20.3,229.9,20.3,229.9,20.3z"/>
	</g>
</g>
<g>
	<circle class="st1" cx="44.1" cy="338.5" r="17.7"/>
</g>
<g>
	<circle class="st1" cx="300.3" cy="30.8" r="24"/>
</g>
<g>
	<circle class="st1" cx="406" cy="369.5" r="15.9"/>
</g>
<circle class="st2" cx="444.8" cy="191.7" r="42.5"/>
<g>
	<g>
		<g>
			<path class="st1" d="M444.8,173.8c-9.6,0-17.3,7.8-17.3,17.4s7.8,17.3,17.4,17.3c9.6,0,17.3-7.9,17.3-17.4
				C462,181.5,454.3,173.7,444.8,173.8z M444.9,205.8c-8.1,0-14.7-6.5-14.8-14.7c0-8.1,6.5-14.7,14.7-14.8c8.1,0,14.7,6.5,14.8,14.7
				C459.5,199.2,453,205.8,444.9,205.8z"/>
		</g>
		<g>
			<path class="st1" d="M451.9,190.3H445v-9.7c0-0.6-0.5-1.1-1.1-1.1c-0.5,0-1.1,0.5-1.1,1.1v11.1c0,0.2,0.1,0.4,0.2,0.6
				c0.2,0.5,0.7,0.8,1.3,0.8h7.4c0.8,0,1.4-0.6,1.4-1.4C453.4,191,452.6,190.3,451.9,190.3z"/>
		</g>
	</g>
	<g>
		<path class="st1" d="M444.1,175.4L444.1,175.4c-1.3,0-2.4-1.1-2.4-2.4v-3.1c0-1.3,1.1-2.4,2.4-2.4l0,0c1.3,0,2.4,1.1,2.4,2.4v3.1
			C446.5,174.2,445.5,175.4,444.1,175.4z"/>
	</g>
</g>
<g>
	<circle class="st2" cx="65.4" cy="89.8" r="33"/>
</g>
<path class="st1" d="M75.1,84.4h-1.7v-6.3c0-4.4-3.6-8.1-8.1-8.1c-4.4,0-8.1,3.6-8.1,8.1v6.4h-1.7c-1.8,0-3.3,1.5-3.3,3.3v15
	c0,1.8,1.5,3.3,3.3,3.3h19.6c1.8,0,3.3-1.5,3.3-3.3v-15C78.4,85.8,76.9,84.4,75.1,84.4z M66.9,100.7h-3.4l-0.6-5.5
	c0-1.3,1.1-2.4,2.4-2.4c1.3,0,2.4,1.1,2.4,2.4L66.9,100.7z M69.9,84.4h-9.3v-6.3c0-2.6,2.1-4.7,4.7-4.7c2.6,0,4.7,2.1,4.7,4.7
	L69.9,84.4L69.9,84.4z"/>
<circle class="st2" cx="233.6" cy="450.1" r="51"/>
<path class="st1" d="M233.9,416.4c-18.8,0-34.1,15.2-34.1,34.1c0,18.8,15.2,34.1,34.1,34.1s34.1-15.2,34.1-34.1
	S252.6,416.4,233.9,416.4z M238.1,479.2c-0.9,0.1-1.8,0.2-2.7,0.3v-13h10.8C244.1,472.5,241.4,477.1,238.1,479.2z M221.8,466.5h10.7
	v13c-0.9,0-1.8-0.1-2.7-0.3C226.4,477.1,223.6,472.6,221.8,466.5z M204.6,451.8h11.8c0.1,4.2,0.6,8.2,1.4,11.8h-10
	C205.9,460,204.9,456.1,204.6,451.8z M229.8,421.4c0.9-0.1,1.8-0.2,2.7-0.3v13.3h-10.7C223.4,428.2,226.4,423.5,229.8,421.4z
	 M246.1,434.3h-10.8v-13.2c0.9,0,1.9,0.1,2.7,0.3C241.4,423.5,244.3,428.2,246.1,434.3z M246.9,437.2c0.9,3.5,1.4,7.5,1.5,11.6
	h-13.1v-11.6H246.9z M232.4,437.2v11.6h-13c0.1-4.2,0.6-8.1,1.5-11.6H232.4z M216.6,448.9h-11.8c0.2-4.2,1.3-8.1,3.1-11.6h10.1
	C217.1,440.8,216.6,444.7,216.6,448.9z M219.4,451.8h13v11.8h-11.5C220.1,460,219.6,456.1,219.4,451.8z M235.4,463.7v-11.8h13.1
	c-0.1,4.2-0.6,8.2-1.5,11.8H235.4z M251.3,451.8H263c-0.2,4.2-1.3,8.2-3.2,11.8h-10C250.8,460,251.1,456.1,251.3,451.8z
	 M251.3,448.9c-0.1-4.2-0.6-8.1-1.4-11.6H260c1.8,3.5,2.8,7.4,3.1,11.6H251.3z M258.3,434.3h-9.1c-1.3-4.7-3.2-8.6-5.5-11.5
	C249.8,425,254.9,429.1,258.3,434.3z M224.1,422.8c-2.3,3-4.2,6.8-5.5,11.5h-9.1C212.9,429.1,218.1,424.9,224.1,422.8z M209.6,466.5
	h9.1c1.3,4.6,3.2,8.4,5.5,11.3C218.1,475.8,213.1,471.7,209.6,466.5z M243.9,477.8c2.3-2.8,4.1-6.7,5.3-11.3h9
	C254.8,471.7,249.6,475.6,243.9,477.8z"/>
<path class="st3" d="M233.6,484.5c-19,0-34.4-15.5-34.4-34.4c0-19,15.5-34.5,34.4-34.5c19,0,34.4,15.5,34.4,34.5
	C268,469.1,252.6,484.5,233.6,484.5z M233.6,416.4c-18.7,0-33.7,15.1-33.7,33.7c0,18.7,15.1,33.7,33.7,33.7
	c18.7,0,33.7-15.1,33.7-33.7C267.4,431.5,252.1,416.4,233.6,416.4z M234.6,479.8V466h11.6l-0.1,0.5c-1.9,6.1-4.9,10.8-8.1,12.9
	l-0.1,0.1c-0.9,0.1-1.9,0.2-2.7,0.3H234.6L234.6,479.8z M235.4,466.8v12.3c0.8,0,1.5-0.1,2.3-0.2c3.1-1.9,5.8-6.3,7.6-12
	L235.4,466.8L235.4,466.8z M232.4,479.8h-0.4c-0.9,0-1.8-0.1-2.7-0.3l-0.1-0.1c-3.4-2.2-6.3-6.7-8.1-12.9l-0.1-0.5h11.5L232.4,479.8
	L232.4,479.8L232.4,479.8z M229.6,478.7c0.8,0.1,1.5,0.2,2.2,0.2v-12.3h-9.8C223.9,472.5,226.4,476.7,229.6,478.7z M224.8,478.4
	l-1.2-0.4c-5.9-2.1-11.2-6.3-14.7-11.5l-0.4-0.6h10l0.1,0.3c1.3,4.4,3.2,8.3,5.3,11.2L224.8,478.4z M209.9,466.8
	c3.2,4.6,7.6,8.1,12.7,10.2c-1.9-2.7-3.5-6.3-4.7-10.2H209.9z M242.4,478.4l0.8-1c2.2-2.8,4.1-6.7,5.3-11.2l0.1-0.3h9.9l-0.4,0.6
	c-3.4,5.3-8.7,9.4-14.5,11.5L242.4,478.4z M249.3,466.8c-1.2,4-2.7,7.4-4.7,10.1c5-2.1,9.6-5.7,12.7-10.1H249.3z M259.9,463.7h-10.6
	l0.1-0.4c0.8-3.6,1.3-7.6,1.4-11.8v-0.4h12.5v0.4c-0.2,4.2-1.3,8.2-3.2,12L259.9,463.7z M250.1,463h9.3c1.8-3.5,2.7-7.3,3-11.1h-11
	C251.3,455.9,250.9,459.5,250.1,463z M246.9,463.7h-12.2v-12.6h13.7v0.4c-0.1,4.2-0.6,8.1-1.5,11.9V463.7z M235.4,463h10.9
	c0.8-3.5,1.3-7.3,1.4-11.1h-12.3V463z M232.4,463.7h-12l-0.1-0.3c-0.9-3.8-1.4-7.7-1.5-11.9v-0.4h13.7L232.4,463.7L232.4,463.7z
	 M220.9,463h10.8v-11.1h-12.2C219.6,455.9,220.1,459.5,220.9,463z M218.1,463.7h-10.7l-0.1-0.2c-1.9-3.8-3-7.8-3.2-12v-0.4h12.6v0.4
	c0.1,4.1,0.6,8.1,1.4,11.8V463.7z M207.8,463h9.4c-0.8-3.5-1.2-7.3-1.3-11.1h-11.1C204.9,455.9,205.9,459.6,207.8,463z M263.1,449
	h-12.4v-0.4c-0.1-4.1-0.5-8-1.3-11.6l-0.1-0.4H260l0.1,0.2c1.9,3.6,2.8,7.6,3.1,11.8V449z M251.4,448.4h11
	c-0.2-3.8-1.2-7.4-2.8-10.9h-9.3C250.9,440.9,251.3,444.5,251.4,448.4z M248.4,449h-13.8v-12.4h12.3l0.1,0.3
	c0.9,3.6,1.4,7.6,1.5,11.7L248.4,449z M235.4,448.4h12.3c-0.1-3.8-0.6-7.4-1.4-10.9h-11L235.4,448.4L235.4,448.4z M232.4,449h-13.7
	v-0.4c0.1-4.1,0.6-8.1,1.5-11.7l0.1-0.3h12.2L232.4,449L232.4,449L232.4,449z M219.4,448.4h12.3v-10.9h-10.9
	C220.1,440.9,219.6,444.5,219.4,448.4z M216.6,449h-12.6v-0.4c0.2-4.2,1.3-8.1,3.1-11.8l0.1-0.2h10.8l-0.1,0.4
	c-0.8,3.6-1.3,7.5-1.3,11.6V449z M204.8,448.4h11.1c0.1-3.8,0.5-7.4,1.3-10.9h-9.4C205.9,440.9,204.9,444.5,204.8,448.4z
	 M258.6,434.6h-10l-0.1-0.3c-1.3-4.6-3.2-8.5-5.3-11.4l-0.8-1l1.2,0.4c5.9,2.2,11.2,6.4,14.7,11.6L258.6,434.6z M249.3,433.8h8.1
	c-3.2-4.6-7.7-8.2-12.7-10.4C246.4,426.2,248.1,429.8,249.3,433.8z M246.3,434.6h-11.7v-14h0.4c0.9,0,1.9,0.1,2.7,0.3l0.1,0.1
	c3.4,2.2,6.4,6.8,8.2,13.1L246.3,434.6z M235.4,433.8h10c-1.9-5.8-4.6-10.2-7.7-12.2c-0.8-0.1-1.5-0.2-2.3-0.2V433.8z M232.4,434.6
	h-11.6l0.1-0.5c1.9-6.4,4.9-11,8.2-13.2l0.1-0.1c1-0.1,1.9-0.2,2.7-0.3h0.4L232.4,434.6L232.4,434.6z M221.9,433.8h9.9v-12.5
	c-0.7,0-1.4,0.1-2.2,0.2C226.4,423.6,223.8,427.9,221.9,433.8z M218.6,434.6h-10.1l0.4-0.6c3.5-5.3,8.8-9.6,14.8-11.7l1.2-0.4
	l-0.8,1c-2.3,2.8-4.2,6.8-5.5,11.4V434.6z M209.9,433.8h8.2c1.2-4.1,2.7-7.6,4.8-10.4C217.6,425.5,213.1,429.2,209.9,433.8z"/>
<path class="st1" d="M320.6,200.4c-1.3-0.2-2.7-0.4-4-0.6c-0.2,0-0.6-0.2-0.7-0.2c-1.6-0.2-3.5-0.2-5.2-0.2h-0.2c-0.2,0-0.2,0-0.2,0
	c-1.8,0-3.5,0.2-5.2,0.2c-6.1-20.2-24.9-34.6-46.7-34.6c-2.6,0-5.8,0.2-8.8,0.6c-10.7-14.4-27.6-23.9-47-23.9
	c-32.3,0-58.6,26.3-58.6,58.6c0,1.3,0.2,2.6,0.2,3.9c-15.8,9.8-26.4,27.2-26.4,47.2c0,30.5,24.8,55.3,55.2,55.3l0,0h133.3v-0.2
	c1.3,0.2,2.7,0.2,4,0.2c29.6,0,53.7-24.2,53.7-53.7C364,226.9,345.3,205.3,320.6,200.4z"/>
<path class="st4" d="M363.6,249.2c-1.6-24.3-19.7-44.2-43.2-48.7c-1.3-0.2-2.7-0.4-4-0.6c-0.2,0-0.6-0.2-0.7-0.2
	c-1.6-0.2-3.5-0.2-5.2-0.2h-0.2c-0.2,0-0.2,0-0.2,0c-1.8,0-3.5,0.2-5.2,0.2c-6.1-20.2-24.9-34.6-46.7-34.6c-2.6,0-5.8,0.2-8.8,0.6
	c-2.7-3.5-5.8-6.8-9-9.6v150.8h65.7v-0.2c1.3,0.2,2.7,0.2,4,0.2c28.5,0,51.8-22.1,53.5-50.2V249.2L363.6,249.2z"/>
</svg>
